{
  "asset": {
    "generator": "Khronos glTF Blender I/O v3.5.30",
    "version": "2.0"
  },
  "scene": 0,
  "scenes": [
    {
      "name": "Scene",
      "nodes": [
        0
      ]
    }
  ],
  "nodes": [
    {
      "mesh": 0,
      "name": "coastal_cliff_01"
    }
  ],
  "materials": [
    {
      "doubleSided": true,
      "name": "coastal_cliff_01",
      "normalTexture": {
        "index": 0
      },
      "pbrMetallicRoughness": {
        "baseColorTexture": {
          "index": 1
        },
        "metallicFactor": 0,
        "metallicRoughnessTexture": {
          "index": 2
        }
      }
    }
  ],
  "meshes": [
    {
      "name": "Plane.001",
      "primitives": [
        {
          "attributes": {
            "POSITION": 0,
            "TEXCOORD_0": 1,
            "NORMAL": 2
          },
          "indices": 3,
          "material": 0
        }
      ]
    }
  ],
  "textures": [
    {
      "sampler": 0,
      "source": 0
    },
    {
      "sampler": 0,
      "source": 1
    },
    {
      "sampler": 0,
      "source": 2
    }
  ],
  "images": [
    {
      "mimeType": "image/jpeg",
      "name": "coastal_cliff_01_nor_gl",
      "uri": "textures/coastal_cliff_01_nor_gl_1k.jpg"
    },
    {
      "mimeType": "image/jpeg",
      "name": "coastal_cliff_01_diff",
      "uri": "textures/coastal_cliff_01_diff_1k.jpg"
    },
    {
      "mimeType": "image/jpeg",
      "name": "coastal_cliff_01_rough",
      "uri": "textures/coastal_cliff_01_arm_1k.jpg"
    }
  ],
  "accessors": [
    {
      "bufferView": 0,
      "componentType": 5126,
      "count": 238686,
      "max": [
        46.924373626708984,
        9.675503730773926,
        4.760909080505371
      ],
      "min": [
        -45.055580139160156,
        -0.6500276327133179,
        -6.205799579620361
      ],
      "type": "VEC3"
    },
    {
      "bufferView": 1,
      "componentType": 5126,
      "count": 238686,
      "type": "VEC2"
    },
    {
      "bufferView": 2,
      "componentType": 5126,
      "count": 238686,
      "type": "VEC3"
    },
    {
      "bufferView": 3,
      "componentType": 5125,
      "count": 1385472,
      "type": "SCALAR"
    }
  ],
  "bufferViews": [
    {
      "buffer": 0,
      "byteLength": 2864232,
      "byteOffset": 0,
      "target": 34962
    },
    {
      "buffer": 0,
      "byteLength": 1909488,
      "byteOffset": 2864232,
      "target": 34962
    },
    {
      "buffer": 0,
      "byteLength": 2864232,
      "byteOffset": 4773720,
      "target": 34962
    },
    {
      "buffer": 0,
      "byteLength": 5541888,
      "byteOffset": 7637952,
      "target": 34963
    }
  ],
  "samplers": [
    {
      "magFilter": 9729,
      "minFilter": 9987
    }
  ],
  "buffers": [
    {
      "byteLength": 13179840,
      "uri": "coastal_cliff_01.bin"
    }
  ]
}